<svg id="Cone_1" viewBox="0 0 200 200" xmlns="http://www.w3.org/2000/svg" data-name="Cone 1"><g><path d="m7.07 126.41 54.83-76.61c.89-1.25 2.33-1.99 3.87-1.99h68.67c1.53 0 2.97.74 3.87 1.99l54.62 76.32c1.64 2.29.95 5.48-1.48 6.88-19.92 11.53-75.57 39.11-138.34 21.15-18.22-5.21-33.15-13.15-44.81-21.03-2.23-1.5-2.79-4.54-1.22-6.72z" fill="#f15a29"/><path d="m95.67 162.07c-4.64 0-9.3-.2-13.86-.6-1.1-.09-1.92-1.06-1.82-2.17.09-1.1 1.07-1.93 2.17-1.82 4.45.39 9 .58 13.52.58 42.15 0 77.47-16.79 94.76-26.8.86-.5 1.38-1.39 1.38-2.39 0-.13 0-.27-.03-.4-.16-1.09.59-2.11 1.69-2.27 1.09-.16 2.11.59 2.27 1.69.05.32.07.66.07.99 0 2.41-1.29 4.65-3.37 5.85-17.65 10.21-53.68 27.34-96.77 27.34zm-20.64-1.35c-.16 0-.34-.02-.5-.06-1.07-.27-1.72-1.35-1.46-2.43.25-.98 1.18-1.61 2.16-1.5 1 .11 1.79.96 1.79 1.99 0 1.1-.9 2-2 2zm-6.92-1.08c-.12 0-.24 0-.36-.03-5.1-.92-10.21-2.1-15.2-3.53-15.96-4.57-31.23-11.73-45.38-21.29-1.87-1.27-2.99-3.37-2.99-5.62 0-1.41.44-2.77 1.26-3.92l54.84-76.61c1.27-1.77 3.32-2.82 5.49-2.82h21.27c1.1 0 2 .9 2 2s-.9 2-2 2h-21.27c-.89 0-1.72.43-2.24 1.15l-54.83 76.61c-.34.47-.51 1.02-.51 1.59 0 .92.46 1.79 1.23 2.31 13.8 9.33 28.68 16.31 44.24 20.76 4.86 1.39 9.84 2.54 14.81 3.44 1.09.2 1.81 1.24 1.62 2.32-.17.97-1.02 1.65-1.97 1.65zm122.06-35.38c-.61 0-1.21-.28-1.6-.8-.66-.88-.49-2.14.4-2.8.89-.67 2.14-.49 2.8.4.66.89.48 2.15-.4 2.81-.36.27-.78.4-1.2.4zm-4.08-5.7c-.62 0-1.24-.29-1.63-.84l-47.78-66.76c-.52-.72-1.35-1.15-2.24-1.15h-33.38c-1.1 0-2-.9-2-2s.9-2 2-2h33.38c2.17 0 4.23 1.06 5.49 2.82l47.78 66.76c.64.9.44 2.15-.46 2.79-.35.25-.76.37-1.16.37zm-92.04-68.75c-1.1 0-2-.9-2-2s.89-2 2-2c1.1 0 2 .9 2 2s-.9 2-2 2z" fill="#231f20"/></g><g><ellipse cx="100.1" cy="47.81" fill="#90330c" rx="36.78" ry="7.89"/><path d="m100.1 57.7c-14.4 0-38.78-2.08-38.78-9.89s24.38-9.89 38.78-9.89c8.32 0 16.2.58 22.79 1.67 1.09.18 1.83 1.21 1.65 2.3s-1.2 1.83-2.3 1.65c-6.38-1.06-14.03-1.62-22.14-1.62-21.28 0-33.82 3.8-34.76 5.89.94 2.09 13.48 5.89 34.76 5.89s34.07-3.87 34.79-5.95c-.04-1.1.82-2.01 1.92-2.04 1.09-.01 2.03.85 2.07 1.95v.15c0 7.81-24.38 9.89-38.78 9.89zm30.39-12.33c-.21 0-.43-.03-.64-.11-.98-.33-1.57-1.36-1.31-2.38.27-1.07 1.36-1.72 2.43-1.46.14.04.29.09.42.15.99.49 1.39 1.7.89 2.68-.35.7-1.06 1.11-1.79 1.11z" fill="#231f20"/></g></svg>