<svg id="Glyph" height="512" viewBox="0 0 128 128" width="512" xmlns="http://www.w3.org/2000/svg"><path d="m112.58 20.52h-97.16a15.44 15.44 0 0 0 -15.42 15.42v70.54a1 1 0 0 0 1 1h7.31a1 1 0 0 0 1-1v-8.71c3.21-.32 6.51-.62 10.06-.89 7.33-.57 14.85-1 22.35-1.31h.05c7.64-.27 15.18-.42 22.41-.42 7.44 0 15 .16 22.41.46 7.62.29 15.16.75 22.4 1.32 3.43.27 6.61.54 9.7.85v8.71a1 1 0 0 0 1 1h7.31a1 1 0 0 0 1-1v-70.55a15.44 15.44 0 0 0 -15.42-15.42zm-29.18 40h-18.23v-14.27c6.37 0 12.66-.06 18.73-.2-.31 4.77-.48 9.64-.5 14.5zm.49 16.51c-6.09-.13-12.36-.2-18.72-.2v-14.28h18.23c.02 4.82.18 9.69.49 14.51zm-18.72-32.78c0-4.81 0-9.63 0-14.42h20.3c-.62 4.68-1.1 9.46-1.45 14.22-6.1.14-12.43.2-18.85.2zm20.73 1.75c6.22-.13 12.5-.33 18.72-.61a134.52 134.52 0 0 0 -1 15.15h-18.22c.02-4.86.19-9.74.5-14.54zm.1-2c.35-4.75.84-9.5 1.45-14.17h20c-1.08 4.48-1.94 9-2.57 13.55-6.26.29-12.58.49-18.88.62zm-70.58-14.17h3.44c1.09 4.52 1.94 9 2.56 13.48-4-.17-8.07-.37-12.11-.6v-6.77a6.12 6.12 0 0 1 6.11-6.11zm-6.11 32.71h13.39a130.19 130.19 0 0 1 -1 15.22c-4.1.18-8.25.37-12.4.62zm4.14-2h-4.14v-15.83c4.13.23 8.28.44 12.38.61a131.26 131.26 0 0 1 1 15.22zm7.46-30.71h20c.57 4.75 1.09 9.52 1.39 14.17-6.27-.13-12.6-.33-18.85-.6-.61-4.47-1.45-9.03-2.54-13.57zm21.52 16.17c.32 4.93.49 9.8.51 14.54h-18.24a131.75 131.75 0 0 0 -1-15.12c6.22.26 12.5.45 18.73.58zm-23.94 48.94c-3.22.26-6.24.54-9.18.82v-15.38c4.06-.24 8.12-.44 12.13-.59a135.82 135.82 0 0 1 -2.95 15.15zm22.36-1.33c-6.8.27-13.6.68-20.26 1.18a142.26 142.26 0 0 0 2.89-15.1c6.4-.26 12.72-.46 18.83-.59-.31 4.72-.82 9.59-1.46 14.51zm-17.12-15.92a131.29 131.29 0 0 0 1-15.15h18.21c0 4.82-.19 9.7-.5 14.55-6.06.12-12.35.33-18.71.6zm19.14 15.85c.64-4.91 1.12-9.77 1.45-14.48 6.28-.13 12.6-.2 18.85-.2q0 7.14 0 14.29c-6.56.02-13.38.15-20.3.39zm2.07-33c0-4.73-.19-9.59-.5-14.49 6.23.13 12.52.19 18.73.19v14.3zm18.23 2v14.32c-6.21 0-12.48.07-18.72.2.3-4.83.47-9.69.49-14.51zm0-18.3c-6.26 0-12.59-.06-18.86-.19-.34-4.69-.81-9.45-1.43-14.23h20.3c0 4.8 0 9.62-.01 14.43zm2 48.9c0-4.75 0-9.53 0-14.29 6.4 0 12.72.07 18.85.2.34 4.82.84 9.69 1.47 14.5-6.75-.24-13.56-.38-20.31-.4zm20.23-30.59h18.23a133.54 133.54 0 0 0 1 15.15c-6.33-.25-12.61-.45-18.7-.58-.34-4.86-.51-9.74-.53-14.57zm2.11 31.08c-.64-4.82-1.13-9.69-1.48-14.52 6.13.13 12.44.33 18.82.59a139.92 139.92 0 0 0 2.92 15.12c-6.57-.51-13.37-.9-20.26-1.19zm31.18 2.13c-2.82-.27-5.73-.53-8.82-.77a143 143 0 0 1 -3-15.19c3.79.15 7.67.34 11.81.58zm0-17.39c-4.23-.24-8.21-.43-12.08-.6a132.69 132.69 0 0 1 -1-15.23h13.06zm0-17.83h-13.06a133.36 133.36 0 0 1 1-15.23c4.39-.19 8.36-.38 12-.6zm0-17.83c-3.62.22-7.5.41-11.78.6a136.91 136.91 0 0 1 2.58-13.48h3.09a6.12 6.12 0 0 1 6.11 6.11z"/></svg>